<svg width="204" height="64" viewBox="0 0 204 64" fill="none" xmlns="http://www.w3.org/2000/svg">
<path fill-rule="evenodd" clip-rule="evenodd" d="M80 44.5707V20H91.8859C95.101 20 97.7075 22.6064 97.7075 25.8216V27.5875C97.7075 29.135 97.1037 30.5414 96.1188 31.5841C97.8642 32.5893 99.0393 34.4737 99.0393 36.6325V38.7491C99.0393 41.9643 96.4328 44.5707 93.2177 44.5707H80ZM82.5874 30.8109H92.1522C93.8138 30.6754 95.1201 29.284 95.1201 27.5875V25.8216C95.1201 24.0354 93.6721 22.5874 91.8859 22.5874H82.5874V30.8109ZM82.5874 41.9833V33.4091L93.2177 33.3983C95.0039 33.3983 96.4519 34.8463 96.4519 36.6325V38.7491C96.4519 40.5353 95.0039 41.9833 93.2177 41.9833H82.5874ZM106.501 20V44.5707H103.794V20H106.501ZM119.917 26.6346H117.11C113.877 26.6346 111.256 29.2555 111.256 32.4885V38.7167C111.256 41.9498 113.877 44.5707 117.11 44.5707H119.917C123.15 44.5707 125.771 41.9498 125.771 38.7167V32.4885C125.771 29.2555 123.15 26.6346 119.917 26.6346ZM117.11 29.3416C115.372 29.3416 113.963 30.7505 113.963 32.4885V38.7167C113.963 40.4547 115.372 41.8636 117.11 41.8636H119.917C121.655 41.8636 123.064 40.4547 123.064 38.7167V32.4885C123.064 30.7505 121.655 29.3416 119.917 29.3416H117.11ZM149.437 44.5801V35.7411H152.738L157.841 44.5801H160.967L155.097 34.413L159.695 26.4493H156.569L152.767 33.0341H149.437V20H146.73V44.5801H149.437ZM140.902 32.9673V32.4885C140.902 30.7505 139.493 29.3416 137.755 29.3416H134.948C133.21 29.3416 131.801 30.7505 131.801 32.4885V38.7167C131.801 40.4547 133.21 41.8636 134.948 41.8636H137.755C139.493 41.8636 140.902 40.4547 140.902 38.7167V38.2379H143.609V38.7167C143.609 41.9498 140.988 44.5707 137.755 44.5707H134.948C131.715 44.5707 129.094 41.9498 129.094 38.7167V32.4885C129.094 29.2555 131.715 26.6346 134.948 26.6346H137.755C140.988 26.6346 143.609 29.2555 143.609 32.4885V32.9673H140.902ZM168.429 44.5707V20H165.722V44.5707H168.429ZM176.094 36.342V38.7167C176.094 40.4547 177.502 41.8636 179.24 41.8636H182.047C183.785 41.8636 185.194 40.4547 185.194 38.7167V38.2379H187.901V38.7167C187.901 41.9498 185.281 44.5707 182.047 44.5707H179.24C176.007 44.5707 173.386 41.9498 173.386 38.7167V32.4885C173.386 29.2555 176.007 26.6346 179.24 26.6346H182.047C185.281 26.6346 187.901 29.2555 187.901 32.4885V33.635V35.3244V36.342H176.094ZM185.194 33.635H176.094V32.4885C176.094 30.7505 177.502 29.3416 179.24 29.3416H182.047C183.785 29.3416 185.194 30.7505 185.194 32.4885V33.635ZM193.626 30.6973H191.217V27.9903H193.626V23.6154H196.214V27.9903H202.477V30.6973H196.214V39.4188C196.214 40.8351 197.362 41.9833 198.778 41.9833C200.194 41.9833 201.343 40.8351 201.343 39.4188V38.8802H203.93V39.4188C203.93 42.2641 201.623 44.5707 198.778 44.5707C195.933 44.5707 193.626 42.2641 193.626 39.4188V30.6973Z" fill="black"/>
<path opacity="0.6" fill-rule="evenodd" clip-rule="evenodd" d="M49.12 10.6348L30.7 0L12.28 10.6348V24.7781L0 31.868V53.1375L18.42 63.7723L30.6702 56.6997L30.7 56.7169L30.7298 56.6997L42.98 63.7723L61.4 53.1375V31.868L49.12 24.7781V10.6348ZM59.4813 32.9757L47.2013 25.8859V11.7426L30.7 2.21558L14.1988 11.7426V25.8859L1.91875 32.9757V52.0297L18.42 61.5568L30.6702 54.4841L30.7 54.5013L30.7298 54.4841L42.98 61.5568L59.4813 52.0297V32.9757Z" fill="url(#paint0_linear_898_1378)"/>
<path fill-rule="evenodd" clip-rule="evenodd" d="M30.6998 14.1797L49.1198 24.8145V46.0841L30.6998 56.7189L12.2798 46.0841V24.8145L30.6998 14.1797ZM15.1579 25.3684L29.7404 33.7876V16.9492L15.1579 25.3684ZM28.781 35.4493L14.1985 27.0301V43.8685L28.781 35.4493ZM31.6592 37.111L46.2417 45.5302L31.6592 53.9494V37.111ZM47.201 43.8685L32.6185 35.4493L47.201 27.0301V43.8685ZM29.7404 53.9494L15.1579 45.5302L29.7404 37.111V53.9494ZM31.6592 16.9492L46.2417 25.3684L31.6592 33.7876V16.9492Z" fill="url(#paint1_linear_898_1378)"/>
<defs>
<linearGradient id="paint0_linear_898_1378" x1="30.7" y1="-31.8862" x2="-33.0265" y2="29.4697" gradientUnits="userSpaceOnUse">
<stop stop-color="#4EF1BA"/>
<stop offset="0.501904" stop-color="#16CED1"/>
<stop offset="1" stop-color="#3773F2"/>
</linearGradient>
<linearGradient id="paint1_linear_898_1378" x1="33.1078" y1="-37.1138" x2="-37.2973" y2="18.5071" gradientUnits="userSpaceOnUse">
<stop stop-color="#4EF1BA"/>
<stop offset="0.501904" stop-color="#16CED1"/>
<stop offset="1" stop-color="#3773F2"/>
</linearGradient>
</defs>
</svg>
