<svg width="204" height="64" viewBox="0 0 204 64" fill="none" xmlns="http://www.w3.org/2000/svg">
  <path fill-rule="evenodd" clip-rule="evenodd" d="M79.8601 44.1875V19.6169H91.7459C94.9611 19.6169 97.5675 22.2233 97.5675 25.4385V27.2044C97.5675 28.7518 96.9637 30.1583 95.9789 31.201C97.7243 32.2062 98.8993 34.0905 98.8993 36.2493V38.3659C98.8993 41.5811 96.2929 44.1875 93.0777 44.1875H79.8601ZM82.4475 30.4278H92.0123C93.6739 30.2923 94.9801 28.9009 94.9801 27.2044V25.4385C94.9801 23.6523 93.5321 22.2043 91.7459 22.2043H82.4475V30.4278ZM82.4475 41.6001V33.0259L93.0777 33.0151C94.8639 33.0151 96.3119 34.4631 96.3119 36.2493V38.3659C96.3119 40.1521 94.8639 41.6001 93.0777 41.6001H82.4475ZM106.361 19.6169V44.1875H103.654V19.6169H106.361ZM119.777 26.2514H116.97C113.737 26.2514 111.116 28.8724 111.116 32.1054V38.3335C111.116 41.5666 113.737 44.1875 116.97 44.1875H119.777C123.01 44.1875 125.631 41.5666 125.631 38.3335V32.1054C125.631 28.8724 123.01 26.2514 119.777 26.2514ZM116.97 28.9585C115.232 28.9585 113.823 30.3674 113.823 32.1054V38.3335C113.823 40.0715 115.232 41.4805 116.97 41.4805H119.777C121.515 41.4805 122.924 40.0715 122.924 38.3335V32.1054C122.924 30.3674 121.515 28.9585 119.777 28.9585H116.97ZM149.297 44.1969V35.358H152.598L157.701 44.1969H160.827L154.957 34.0299L159.555 26.0662H156.429L152.627 32.6509H149.297V19.6169H146.59V44.1969H149.297ZM140.762 32.5842V32.1054C140.762 30.3674 139.353 28.9585 137.615 28.9585H134.808C133.07 28.9585 131.661 30.3674 131.661 32.1054V38.3335C131.661 40.0715 133.07 41.4805 134.808 41.4805H137.615C139.353 41.4805 140.762 40.0715 140.762 38.3335V37.8548H143.469V38.3335C143.469 41.5666 140.848 44.1875 137.615 44.1875H134.808C131.575 44.1875 128.954 41.5666 128.954 38.3335V32.1054C128.954 28.8724 131.575 26.2514 134.808 26.2514H137.615C140.848 26.2514 143.469 28.8724 143.469 32.1054V32.5842H140.762ZM168.288 44.1875V19.6169H165.581V44.1875H168.288ZM175.953 35.9589V38.3335C175.953 40.0715 177.362 41.4805 179.1 41.4805H181.907C183.645 41.4805 185.054 40.0715 185.054 38.3335V37.8548H187.761V38.3335C187.761 41.5666 185.14 44.1875 181.907 44.1875H179.1C175.867 44.1875 173.246 41.5666 173.246 38.3335V32.1054C173.246 28.8724 175.867 26.2514 179.1 26.2514H181.907C185.14 26.2514 187.761 28.8724 187.761 32.1054V33.2518V34.9413V35.9589H175.953ZM185.054 33.2518H175.953V32.1054C175.953 30.3674 177.362 28.9585 179.1 28.9585H181.907C183.645 28.9585 185.054 30.3674 185.054 32.1054V33.2518ZM193.486 30.3142H191.077V27.6072H193.486V23.2323H196.073V27.6072H202.336V30.3142H196.073V39.0356C196.073 40.452 197.222 41.6001 198.638 41.6001C200.054 41.6001 201.202 40.452 201.202 39.0356V38.4971H203.79V39.0356C203.79 41.8809 201.483 44.1875 198.638 44.1875C195.793 44.1875 193.486 41.8809 193.486 39.0356V30.3142Z" fill="white" />
  <path opacity="0.6" fill-rule="evenodd" clip-rule="evenodd" d="M49.152 10.6417L30.72 0L12.288 10.6417V24.7942L0 31.8887V53.1722L18.432 63.8139L30.6902 56.7366L30.72 56.7538L30.7498 56.7366L43.008 63.8139L61.44 53.1722V31.8887L49.152 24.7942V10.6417ZM59.52 32.9972L47.232 25.9027V11.7502L30.72 2.21703L14.208 11.7502V25.9028L1.92 32.9972V52.0636L18.432 61.5968L30.6902 54.5196L30.72 54.5368L30.7498 54.5196L43.008 61.5968L59.52 52.0636V32.9972Z" fill="white" />
  <path fill-rule="evenodd" clip-rule="evenodd" d="M30.6012 13.9069L49.0332 24.5486V45.8321L30.6012 56.4738L12.1692 45.8321V24.5486L30.6012 13.9069ZM15.0492 25.1029L29.6412 33.5276V16.6782L15.0492 25.1029ZM28.6812 35.1904L14.0892 26.7657V43.6151L28.6812 35.1904ZM31.5612 36.8531L46.1532 45.2778L31.5612 53.7025V36.8531ZM47.1132 43.6151L32.5212 35.1904L47.1132 26.7657V43.6151ZM29.6412 53.7025L15.0492 45.2778L29.6412 36.8531V53.7025ZM31.5612 16.6782L46.1532 25.1029L31.5612 33.5276V16.6782Z" fill="white" />
</svg>
