<svg width="122" height="24" viewBox="0 0 122 24" fill="none" xmlns="http://www.w3.org/2000/svg">
  <path fill-rule="evenodd" clip-rule="evenodd" d="M0 23.9908V0H11.6054C14.7447 0 17.2896 2.54491 17.2896 5.68421V7.40841C17.2896 8.91937 16.7 10.2926 15.7384 11.3107C17.4426 12.2922 18.59 14.1321 18.59 16.24V18.3066C18.59 21.4459 16.045 23.9908 12.9057 23.9908H0ZM2.52632 10.5557H11.8654C13.4878 10.4235 14.7633 9.0649 14.7633 7.4084V5.68421C14.7633 3.94015 13.3494 2.52632 11.6054 2.52632H2.52632V10.5557ZM2.52632 21.4645V13.0926L12.9057 13.0821C14.6498 13.0821 16.0636 14.4959 16.0636 16.24V18.3066C16.0636 20.0507 14.6498 21.4645 12.9057 21.4645H2.52632ZM25.8756 0V23.9908H23.2325V0H25.8756ZM38.9747 6.47798H36.234C33.0772 6.47798 30.5181 9.03705 30.5181 12.1938V18.275C30.5181 21.4317 33.0772 23.9908 36.234 23.9908H38.9747C42.1315 23.9908 44.6906 21.4317 44.6906 18.275V12.1938C44.6906 9.03705 42.1315 6.47798 38.9747 6.47798ZM36.234 9.12114C34.537 9.12114 33.1613 10.4968 33.1613 12.1938V18.275C33.1613 19.972 34.537 21.3477 36.234 21.3477H38.9747C40.6717 21.3477 42.0474 19.972 42.0474 18.275V12.1938C42.0474 10.4968 40.6717 9.12114 38.9747 9.12114H36.234ZM67.7986 24V15.3696H71.0213L76.004 24H79.0561L73.3247 14.0729L77.814 6.29713H74.7619L71.0499 12.7265H67.7986V0H65.1555V24H67.7986ZM59.4646 12.6613V12.1938C59.4646 10.4968 58.0889 9.12114 56.3919 9.12114H53.6511C51.9541 9.12114 50.5784 10.4968 50.5784 12.1938V18.275C50.5784 19.972 51.9541 21.3477 53.6511 21.3477H56.3919C58.0889 21.3477 59.4646 19.972 59.4646 18.275V17.8075H62.1077V18.275C62.1077 21.4317 59.5487 23.9908 56.3919 23.9908H53.6511C50.4944 23.9908 47.9353 21.4317 47.9353 18.275V12.1938C47.9353 9.03705 50.4944 6.47798 53.6511 6.47798H56.3919C59.5487 6.47798 62.1077 9.03705 62.1077 12.1938V12.6613H59.4646ZM86.3418 23.9908V0H83.6986V23.9908H86.3418ZM93.8258 15.9563V18.275C93.8258 19.972 95.2015 21.3477 96.8985 21.3477H99.6392C101.336 21.3477 102.712 19.972 102.712 18.275V17.8075H105.355V18.275C105.355 21.4317 102.796 23.9908 99.6392 23.9908H96.8985C93.7417 23.9908 91.1826 21.4317 91.1826 18.275V12.1938C91.1826 9.03705 93.7417 6.47798 96.8985 6.47798H99.6392C102.796 6.47798 105.355 9.03705 105.355 12.1938V13.3132V14.9628V15.9563H93.8258ZM102.712 13.3132H93.8258V12.1938C93.8258 10.4968 95.2015 9.12114 96.8985 9.12114H99.6392C101.336 9.12114 102.712 10.4968 102.712 12.1938V13.3132ZM110.945 10.4449H108.592V7.80172H110.945V3.53011H113.471V7.80172H119.586V10.4449H113.471V18.9605C113.471 20.3434 114.592 21.4645 115.975 21.4645C117.358 21.4645 118.479 20.3434 118.479 18.9605V18.4346H121.005V18.9605C121.005 21.7387 118.753 23.9908 115.975 23.9908C113.197 23.9908 110.945 21.7387 110.945 18.9605V10.4449Z" fill="white" />
</svg>
