<svg width="145" height="138" viewBox="0 0 145 138" fill="none" xmlns="http://www.w3.org/2000/svg">
  <path fill-rule="evenodd" clip-rule="evenodd" d="M0 137.789V109H13.9066C17.6684 109 20.718 112.054 20.718 115.821V117.89C20.718 119.703 20.0115 121.351 18.8593 122.573C20.9014 123.751 22.2762 125.959 22.2762 128.488V130.968C22.2762 134.735 19.2267 137.789 15.4649 137.789H0ZM3.02727 121.667H14.2183C16.1624 121.508 17.6907 119.878 17.6907 117.89V115.821C17.6907 113.728 15.9965 112.032 13.9066 112.032H3.02727V121.667ZM3.02727 134.757V124.711L15.4649 124.698C17.5548 124.698 19.249 126.395 19.249 128.488V130.968C19.249 133.061 17.5548 134.757 15.4649 134.757H3.02727ZM31.0066 109V137.789H27.8393V109H31.0066ZM46.7032 116.774H43.419C39.6362 116.774 36.5697 119.844 36.5697 123.633V130.93C36.5697 134.718 39.6362 137.789 43.419 137.789H46.7032C50.4859 137.789 53.5525 134.718 53.5525 130.93V123.633C53.5525 119.844 50.4859 116.774 46.7032 116.774ZM43.419 119.945C41.3855 119.945 39.737 121.596 39.737 123.633V130.93C39.737 132.966 41.3855 134.617 43.419 134.617H46.7032C48.7367 134.617 50.3852 132.966 50.3852 130.93V123.633C50.3852 121.596 48.7367 119.945 46.7032 119.945H43.419ZM81.2427 137.8V127.444H85.1044L91.0752 137.8H94.7325L87.8645 125.887L93.244 116.557H89.5868L85.1387 124.272H81.2427V109H78.0754V137.8H81.2427ZM71.2561 124.194V123.633C71.2561 121.596 69.6076 119.945 67.5741 119.945H64.2898C62.2563 119.945 60.6079 121.596 60.6079 123.633V130.93C60.6079 132.966 62.2563 134.617 64.2898 134.617H67.5741C69.6076 134.617 71.2561 132.966 71.2561 130.93V130.369H74.4233V130.93C74.4233 134.718 71.3568 137.789 67.5741 137.789H64.2898C60.5071 137.789 57.4406 134.718 57.4406 130.93V123.633C57.4406 119.844 60.5071 116.774 64.2898 116.774H67.5741C71.3568 116.774 74.4233 119.844 74.4233 123.633V124.194H71.2561ZM103.463 137.789V109H100.296V137.789H103.463ZM112.431 128.148V130.93C112.431 132.966 114.079 134.617 116.113 134.617H119.397C121.431 134.617 123.079 132.966 123.079 130.93V130.369H126.246V130.93C126.246 134.718 123.18 137.789 119.397 137.789H116.113C112.33 137.789 109.264 134.718 109.264 130.93V123.633C109.264 119.844 112.33 116.774 116.113 116.774H119.397C123.18 116.774 126.246 119.844 126.246 123.633L126.246 124.976L126.246 126.955L126.246 128.148H112.431ZM123.079 124.976H112.431V123.633C112.431 121.596 114.079 119.945 116.113 119.945H119.397C121.431 119.945 123.079 121.596 123.079 123.633V124.976ZM132.944 121.534H130.126V118.362H132.944V113.236H135.972V118.362H143.3V121.534H135.972V131.753C135.972 133.412 137.315 134.757 138.972 134.757C140.629 134.757 141.973 133.412 141.973 131.753V131.122H145V131.753C145 135.086 142.301 137.789 138.972 137.789C135.643 137.789 132.944 135.086 132.944 131.753V121.534Z" fill="black" />
  <path opacity="0.6" fill-rule="evenodd" clip-rule="evenodd" d="M100.8 16.6277L72 0L43.2 16.6277V38.741L24 49.8261V83.0815L52.8 99.7092L71.9534 88.651L72 88.6779L72.0466 88.651L91.2 99.7092L120 83.0815V49.8261L100.8 38.741V16.6277ZM117 51.5582L97.8 40.473V18.3597L72 3.4641L46.2 18.3597V40.473L27 51.5582V81.3494L52.8 96.2451L71.9534 85.1869L72 85.2138L72.0466 85.1869L91.2 96.2451L117 81.3494V51.5582Z" fill="url(#paint0_linear_1945_5189)" />
  <path fill-rule="evenodd" clip-rule="evenodd" d="M71.9997 22.1704L100.8 38.7981V72.0535L71.9997 88.6812L43.1997 72.0535V38.7981L71.9997 22.1704ZM47.6997 39.6641L70.4997 52.8277V26.5005L47.6997 39.6641ZM68.9997 55.4258L46.1997 42.2622V68.5894L68.9997 55.4258ZM73.4997 58.0239L96.2997 71.1874L73.4997 84.351V58.0239ZM97.7997 68.5894L74.9997 55.4258L97.7997 42.2622V68.5894ZM70.4997 84.351L47.6997 71.1874L70.4997 58.0239V84.351ZM73.4997 26.5005L96.2997 39.6641L73.4997 52.8277V26.5005Z" fill="url(#paint1_linear_1945_5189)" />
  <defs>
    <linearGradient id="paint0_linear_1945_5189" x1="72" y1="-49.8546" x2="-27.6376" y2="46.0765" gradientUnits="userSpaceOnUse">
      <stop stop-color="#4EF1BA" />
      <stop offset="0.501904" stop-color="#16CED1" />
      <stop offset="1" stop-color="#3773F2" />
    </linearGradient>
    <linearGradient id="paint1_linear_1945_5189" x1="75.7647" y1="-58.0279" x2="-34.315" y2="28.9365" gradientUnits="userSpaceOnUse">
      <stop stop-color="#4EF1BA" />
      <stop offset="0.501904" stop-color="#16CED1" />
      <stop offset="1" stop-color="#3773F2" />
    </linearGradient>
  </defs>
</svg>
