<svg width="120" height="120" viewBox="0 0 120 120" fill="none" xmlns="http://www.w3.org/2000/svg">
<rect width="120" height="120" fill="white"/>
<rect width="119.883" height="119.883" fill="url(#paint0_linear_2412_11122)"/>
<mask id="mask0_2412_11122" style="mask-type:alpha" maskUnits="userSpaceOnUse" x="0" y="0" width="120" height="120">
<rect width="119.883" height="119.883" rx="38" fill="white"/>
</mask>
<g mask="url(#mask0_2412_11122)">
<path opacity="0.5" fill-rule="evenodd" clip-rule="evenodd" d="M59.8118 -29.8306V59.7359L-17.755 104.519L-6.43898 -12.2927L59.8118 -29.8306Z" fill="#1DB38E"/>
<path opacity="0.5" fill-rule="evenodd" clip-rule="evenodd" d="M59.8118 -29.8306V59.7359L137.379 104.519L136.098 -1.4634L59.8118 -29.8306Z" fill="#2EDFA8"/>
</g>
<path opacity="0.6" fill-rule="evenodd" clip-rule="evenodd" d="M87.8644 25.8793L59.8118 9.68311L31.7592 25.8793V47.4187L13.0575 58.2162V90.6085L41.1101 106.805L59.7664 96.0335L59.8118 96.0597L59.8573 96.0335L78.5136 106.805L106.566 90.6085V58.2162L87.8644 47.4187V25.8793ZM103.644 59.9033L84.9423 49.1058V27.5664L59.8118 13.0573L34.6814 27.5664V49.1058L15.9796 59.9033V88.9214L41.1101 103.431L59.7664 92.6593L59.8118 92.6855L59.8572 92.6593L78.5136 103.431L103.644 88.9214V59.9033Z" fill="white"/>
<path fill-rule="evenodd" clip-rule="evenodd" d="M87.8644 47.474L59.8118 31.2778L31.7592 47.474V79.8664L59.8118 96.0625L87.8644 79.8664V47.474ZM34.6813 49.1611L59.8118 34.652L84.9422 49.1611V78.1793L59.8118 92.6883L34.6813 78.1793V49.1611Z" fill="white"/>
<path d="M63.3951 60.117V47.4146H56.0195V60.117H43.317V67.4926H56.0195V80.195H63.3951V67.4926H76.0975V60.117H63.3951Z" fill="white"/>
<defs>
<linearGradient id="paint0_linear_2412_11122" x1="59.9415" y1="-59.9415" x2="-59.9415" y2="59.9415" gradientUnits="userSpaceOnUse">
<stop stop-color="#2EDFA8"/>
<stop offset="0.503541" stop-color="#25C99B"/>
<stop offset="1" stop-color="#1DB38E"/>
</linearGradient>
</defs>
</svg>
