<svg width="302" height="65" viewBox="0 0 302 65" fill="none" xmlns="http://www.w3.org/2000/svg">
<path d="M95.232 36.8842C95.4667 36.8842 95.6747 36.9749 95.856 37.1562L97.552 38.9962C96.6133 40.1589 95.456 41.0496 94.08 41.6682C92.7147 42.2869 91.072 42.5962 89.152 42.5962C87.4347 42.5962 85.888 42.3029 84.512 41.7162C83.1467 41.1296 81.9787 40.3136 81.008 39.2682C80.0373 38.2229 79.2907 36.9749 78.768 35.5242C78.256 34.0736 78 32.4896 78 30.7722C78 29.0336 78.2773 27.4442 78.832 26.0042C79.3867 24.5536 80.1653 23.3056 81.168 22.2602C82.1813 21.2149 83.3867 20.4042 84.784 19.8282C86.1813 19.2416 87.728 18.9482 89.424 18.9482C91.1093 18.9482 92.6027 19.2256 93.904 19.7802C95.216 20.3349 96.3307 21.0602 97.248 21.9562L95.808 23.9562C95.7227 24.0842 95.6107 24.1962 95.472 24.2922C95.344 24.3882 95.1627 24.4362 94.928 24.4362C94.768 24.4362 94.6027 24.3936 94.432 24.3082C94.2613 24.2122 94.0747 24.1002 93.872 23.9722C93.6693 23.8336 93.4347 23.6842 93.168 23.5242C92.9013 23.3642 92.592 23.2202 92.24 23.0922C91.888 22.9536 91.4773 22.8416 91.008 22.7562C90.5493 22.6602 90.016 22.6122 89.408 22.6122C88.3733 22.6122 87.424 22.7989 86.56 23.1722C85.7067 23.5349 84.9707 24.0682 84.352 24.7722C83.7333 25.4656 83.2533 26.3189 82.912 27.3322C82.5707 28.3349 82.4 29.4816 82.4 30.7722C82.4 32.0736 82.5813 33.2309 82.944 34.2442C83.3173 35.2576 83.8187 36.1109 84.448 36.8042C85.0773 37.4976 85.8187 38.0309 86.672 38.4042C87.5253 38.7669 88.4427 38.9482 89.424 38.9482C90.0107 38.9482 90.5387 38.9162 91.008 38.8522C91.488 38.7882 91.9253 38.6869 92.32 38.5482C92.7253 38.4096 93.104 38.2336 93.456 38.0202C93.8187 37.7962 94.176 37.5242 94.528 37.2042C94.6347 37.1082 94.7467 37.0336 94.864 36.9802C94.9813 36.9162 95.104 36.8842 95.232 36.8842Z" fill="#121319"/>
<path d="M103.542 28.7722C104.054 27.7909 104.662 27.0229 105.366 26.4682C106.07 25.9029 106.902 25.6202 107.862 25.6202C108.619 25.6202 109.227 25.7856 109.686 26.1162L109.43 29.0762C109.376 29.2682 109.296 29.4069 109.19 29.4922C109.094 29.5669 108.96 29.6042 108.79 29.6042C108.63 29.6042 108.39 29.5776 108.07 29.5242C107.76 29.4709 107.456 29.4442 107.158 29.4442C106.72 29.4442 106.331 29.5082 105.99 29.6362C105.648 29.7642 105.339 29.9509 105.062 30.1962C104.795 30.4309 104.555 30.7189 104.342 31.0602C104.139 31.4016 103.947 31.7909 103.766 32.2282V42.3402H99.8137V25.9242H102.134C102.539 25.9242 102.822 25.9989 102.982 26.1482C103.142 26.2869 103.248 26.5429 103.302 26.9162L103.542 28.7722Z" fill="#121319"/>
<path d="M121.859 32.2442C121.859 31.7322 121.784 31.2522 121.635 30.8042C121.496 30.3456 121.283 29.9456 120.995 29.6042C120.707 29.2629 120.339 28.9962 119.891 28.8042C119.453 28.6016 118.941 28.5002 118.355 28.5002C117.213 28.5002 116.312 28.8256 115.651 29.4762C115 30.1269 114.584 31.0496 114.403 32.2442H121.859ZM114.323 34.6282C114.387 35.4709 114.536 36.2016 114.771 36.8202C115.005 37.4282 115.315 37.9349 115.699 38.3402C116.083 38.7349 116.536 39.0336 117.059 39.2362C117.592 39.4282 118.179 39.5242 118.819 39.5242C119.459 39.5242 120.008 39.4496 120.467 39.3002C120.936 39.1509 121.341 38.9856 121.683 38.8042C122.035 38.6229 122.339 38.4576 122.595 38.3082C122.861 38.1589 123.117 38.0842 123.363 38.0842C123.693 38.0842 123.939 38.2069 124.099 38.4522L125.235 39.8922C124.797 40.4042 124.307 40.8362 123.763 41.1882C123.219 41.5296 122.648 41.8069 122.051 42.0202C121.464 42.2229 120.861 42.3669 120.243 42.4522C119.635 42.5376 119.043 42.5802 118.467 42.5802C117.325 42.5802 116.264 42.3936 115.283 42.0202C114.301 41.6362 113.448 41.0762 112.722 40.3402C111.997 39.5936 111.427 38.6762 111.011 37.5882C110.595 36.4896 110.387 35.2202 110.387 33.7802C110.387 32.6602 110.568 31.6096 110.931 30.6282C111.293 29.6362 111.811 28.7776 112.483 28.0522C113.165 27.3162 113.992 26.7349 114.963 26.3082C115.944 25.8816 117.048 25.6682 118.275 25.6682C119.309 25.6682 120.264 25.8336 121.139 26.1642C122.013 26.4949 122.765 26.9802 123.395 27.6202C124.024 28.2496 124.515 29.0282 124.867 29.9562C125.229 30.8736 125.411 31.9242 125.411 33.1082C125.411 33.7056 125.347 34.1109 125.219 34.3242C125.091 34.5269 124.845 34.6282 124.483 34.6282H114.323Z" fill="#121319"/>
<path d="M137.048 35.3322C135.907 35.3856 134.947 35.4869 134.168 35.6362C133.39 35.7749 132.766 35.9562 132.296 36.1802C131.827 36.4042 131.491 36.6656 131.288 36.9642C131.086 37.2629 130.984 37.5882 130.984 37.9402C130.984 38.6336 131.187 39.1296 131.592 39.4282C132.008 39.7269 132.547 39.8762 133.208 39.8762C134.019 39.8762 134.718 39.7322 135.304 39.4442C135.902 39.1456 136.483 38.6976 137.048 38.1002V35.3322ZM127.992 28.2122C129.88 26.4842 132.152 25.6202 134.808 25.6202C135.768 25.6202 136.627 25.7802 137.384 26.1002C138.142 26.4096 138.782 26.8469 139.304 27.4122C139.827 27.9669 140.222 28.6336 140.488 29.4122C140.766 30.1909 140.904 31.0442 140.904 31.9722V42.3402H139.112C138.739 42.3402 138.451 42.2869 138.248 42.1802C138.046 42.0629 137.886 41.8336 137.768 41.4922L137.416 40.3082C137 40.6816 136.595 41.0122 136.2 41.3002C135.806 41.5776 135.395 41.8122 134.968 42.0042C134.542 42.1962 134.083 42.3402 133.592 42.4362C133.112 42.5429 132.579 42.5962 131.992 42.5962C131.299 42.5962 130.659 42.5056 130.072 42.3242C129.486 42.1322 128.979 41.8496 128.552 41.4762C128.126 41.1029 127.795 40.6389 127.56 40.0842C127.326 39.5296 127.208 38.8842 127.208 38.1482C127.208 37.7322 127.278 37.3216 127.416 36.9162C127.555 36.5002 127.779 36.1056 128.088 35.7322C128.408 35.3589 128.819 35.0069 129.32 34.6762C129.822 34.3456 130.435 34.0576 131.16 33.8122C131.896 33.5669 132.75 33.3696 133.72 33.2202C134.691 33.0602 135.8 32.9642 137.048 32.9322V31.9722C137.048 30.8736 136.814 30.0629 136.344 29.5402C135.875 29.0069 135.198 28.7402 134.312 28.7402C133.672 28.7402 133.139 28.8149 132.712 28.9642C132.296 29.1136 131.928 29.2842 131.608 29.4762C131.288 29.6576 130.995 29.8229 130.728 29.9722C130.472 30.1216 130.184 30.1962 129.864 30.1962C129.587 30.1962 129.352 30.1269 129.16 29.9882C128.968 29.8389 128.814 29.6682 128.696 29.4762L127.992 28.2122Z" fill="#121319"/>
<path d="M149.88 42.5962C148.45 42.5962 147.351 42.1962 146.583 41.3962C145.826 40.5856 145.447 39.4709 145.447 38.0522V28.8842H143.767C143.554 28.8842 143.373 28.8149 143.223 28.6762C143.074 28.5376 142.999 28.3296 142.999 28.0522V26.4842L145.639 26.0522L146.471 21.5722C146.525 21.3589 146.626 21.1936 146.775 21.0762C146.925 20.9589 147.117 20.9002 147.352 20.9002H149.399V26.0682H153.784V28.8842H149.399V37.7802C149.399 38.2922 149.522 38.6922 149.767 38.9802C150.023 39.2682 150.37 39.4122 150.807 39.4122C151.053 39.4122 151.255 39.3856 151.415 39.3322C151.586 39.2682 151.73 39.2042 151.847 39.1402C151.975 39.0762 152.087 39.0176 152.183 38.9642C152.279 38.9002 152.375 38.8682 152.471 38.8682C152.589 38.8682 152.685 38.9002 152.759 38.9642C152.834 39.0176 152.914 39.1029 152.999 39.2202L154.183 41.1402C153.607 41.6202 152.946 41.9829 152.2 42.2282C151.453 42.4736 150.68 42.5962 149.88 42.5962Z" fill="#121319"/>
<path d="M166.765 32.2442C166.765 31.7322 166.69 31.2522 166.541 30.8042C166.402 30.3456 166.189 29.9456 165.901 29.6042C165.613 29.2629 165.245 28.9962 164.797 28.8042C164.359 28.6016 163.847 28.5002 163.261 28.5002C162.119 28.5002 161.218 28.8256 160.557 29.4762C159.906 30.1269 159.49 31.0496 159.309 32.2442H166.765ZM159.229 34.6282C159.293 35.4709 159.442 36.2016 159.677 36.8202C159.911 37.4282 160.221 37.9349 160.605 38.3402C160.989 38.7349 161.442 39.0336 161.965 39.2362C162.498 39.4282 163.085 39.5242 163.725 39.5242C164.365 39.5242 164.914 39.4496 165.373 39.3002C165.842 39.1509 166.247 38.9856 166.589 38.8042C166.941 38.6229 167.245 38.4576 167.501 38.3082C167.767 38.1589 168.023 38.0842 168.269 38.0842C168.599 38.0842 168.845 38.2069 169.005 38.4522L170.141 39.8922C169.703 40.4042 169.213 40.8362 168.669 41.1882C168.125 41.5296 167.554 41.8069 166.957 42.0202C166.37 42.2229 165.767 42.3669 165.149 42.4522C164.541 42.5376 163.949 42.5802 163.373 42.5802C162.231 42.5802 161.17 42.3936 160.189 42.0202C159.207 41.6362 158.354 41.0762 157.629 40.3402C156.903 39.5936 156.333 38.6762 155.917 37.5882C155.501 36.4896 155.293 35.2202 155.293 33.7802C155.293 32.6602 155.474 31.6096 155.837 30.6282C156.199 29.6362 156.717 28.7776 157.389 28.0522C158.071 27.3162 158.898 26.7349 159.869 26.3082C160.85 25.8816 161.954 25.6682 163.181 25.6682C164.215 25.6682 165.17 25.8336 166.045 26.1642C166.919 26.4949 167.671 26.9802 168.301 27.6202C168.93 28.2496 169.421 29.0282 169.773 29.9562C170.135 30.8736 170.317 31.9242 170.317 33.1082C170.317 33.7056 170.253 34.1109 170.125 34.3242C169.997 34.5269 169.751 34.6282 169.389 34.6282H159.229Z" fill="#121319"/>
<path fill-rule="evenodd" clip-rule="evenodd" d="M178.317 42.7633V18.7725H189.888C193.019 18.7725 195.556 21.3174 195.556 24.4567V26.1809C195.556 27.6918 194.968 29.0651 194.009 30.0832C195.709 31.0647 196.853 32.9046 196.853 35.0124V37.0791C196.853 40.2184 194.315 42.7633 191.185 42.7633H178.317ZM180.836 29.3282H190.148C191.766 29.1959 193.038 27.8373 193.038 26.1808V24.4566C193.038 22.7126 191.628 21.2987 189.889 21.2987H180.836V29.3282ZM180.836 40.237V31.8651L191.186 31.8546C192.925 31.8546 194.334 33.2684 194.334 35.0125V37.0791C194.334 38.8232 192.925 40.237 191.186 40.237H180.836ZM204.117 18.7725V42.7633H201.482V18.7725H204.117ZM217.178 25.2504H214.445C211.297 25.2504 208.746 27.8095 208.746 30.9663V37.0474C208.746 40.2042 211.297 42.7633 214.445 42.7633H217.178C220.325 42.7633 222.877 40.2042 222.877 37.0474V30.9663C222.877 27.8095 220.325 25.2504 217.178 25.2504ZM214.445 27.8937C212.753 27.8937 211.381 29.2693 211.381 30.9663V37.0475C211.381 38.7445 212.753 40.1202 214.445 40.1202H217.178C218.87 40.1202 220.241 38.7445 220.241 37.0475V30.9663C220.241 29.2693 218.87 27.8937 217.178 27.8937H214.445ZM245.918 42.7725V34.1421H249.131L254.099 42.7725H257.143L251.428 32.8453L255.904 25.0696H252.861L249.16 31.4989H245.918V18.7725H243.282V42.7725H245.918ZM237.608 31.4337V30.9663C237.608 29.2693 236.237 27.8936 234.544 27.8936H231.812C230.12 27.8936 228.748 29.2693 228.748 30.9663V37.0474C228.748 38.7444 230.12 40.1201 231.812 40.1201H234.544C236.237 40.1201 237.608 38.7444 237.608 37.0474V36.58H240.244V37.0474C240.244 40.2042 237.692 42.7633 234.544 42.7633H231.812C228.664 42.7633 226.112 40.2042 226.112 37.0474V30.9663C226.112 27.8095 228.664 25.2504 231.812 25.2504H234.544C237.692 25.2504 240.244 27.8095 240.244 30.9663V31.4337H237.608ZM264.407 42.7633V18.7725H261.772V42.7633H264.407ZM271.869 34.7287V37.0474C271.869 38.7444 273.241 40.1201 274.933 40.1201H277.666C279.358 40.1201 280.73 38.7444 280.73 37.0474V36.58H283.365V37.0474C283.365 40.2042 280.814 42.7633 277.666 42.7633H274.933C271.786 42.7633 269.234 40.2042 269.234 37.0474V30.9663C269.234 27.8095 271.786 25.2504 274.933 25.2504H277.666C280.814 25.2504 283.365 27.8095 283.365 30.9663V32.0856H283.366V34.7287H271.869ZM280.73 32.0856H271.869V30.9663C271.869 29.2693 273.241 27.8936 274.933 27.8936H277.666C279.358 27.8936 280.73 29.2693 280.73 30.9663V32.0856ZM288.938 29.2173H286.593V26.5741H288.938V22.3026H291.457V26.5741H297.555V29.2173H291.457V37.733C291.457 39.1159 292.575 40.2369 293.954 40.2369C295.333 40.2369 296.451 39.1159 296.451 37.733V37.2071H298.97V37.733C298.97 40.5111 296.724 42.7633 293.954 42.7633C291.184 42.7633 288.938 40.5111 288.938 37.733V29.2173Z" fill="#121319"/>
<path fill-rule="evenodd" clip-rule="evenodd" d="M50.152 11.4142L31.72 0.772461L13.288 11.4142V25.5667L1 32.6612V53.9446L19.432 64.5863L31.6902 57.5091L31.72 57.5263L31.7498 57.5091L44.008 64.5863L62.44 53.9446V32.6612L50.152 25.5667V11.4142ZM60.52 33.7697L48.232 26.6752V12.5227L31.72 2.98949L15.208 12.5227V26.6752L2.92 33.7697V52.8361L19.432 62.3693L31.6902 55.2921L31.72 55.3093L31.7498 55.2921L44.008 62.3693L60.52 52.8361V33.7697Z" fill="url(#paint0_linear_2412_11131)"/>
<path fill-rule="evenodd" clip-rule="evenodd" d="M31.7201 14.9614L50.1521 25.6031V46.8866L31.7201 57.5283L13.2881 46.8866V25.6031L31.7201 14.9614ZM31.7201 17.1785L15.2081 26.7117V45.7781L31.7201 55.3113L48.2321 45.7781V26.7117L31.7201 17.1785Z" fill="url(#paint1_linear_2412_11131)"/>
<path fill-rule="evenodd" clip-rule="evenodd" d="M22 33.5225H29.75V25.7725H34.25V33.5225H42V38.0225H34.25V45.7725H29.75V38.0225H22V33.5225ZM27.75 40.0225H20V31.5225H27.75V23.7725H36.25V31.5225H44V40.0225H36.25V47.7725H27.75V40.0225Z" fill="url(#paint2_linear_2412_11131)"/>
<defs>
<linearGradient id="paint0_linear_2412_11131" x1="31.72" y1="-31.1345" x2="-32.048" y2="30.2614" gradientUnits="userSpaceOnUse">
<stop stop-color="#2EDFA8"/>
<stop offset="0.503541" stop-color="#25C99B"/>
<stop offset="1" stop-color="#1DB38E"/>
</linearGradient>
<linearGradient id="paint1_linear_2412_11131" x1="31.7201" y1="-6.32201" x2="-10.4102" y2="30.1639" gradientUnits="userSpaceOnUse">
<stop stop-color="#2EDFA8"/>
<stop offset="0.503541" stop-color="#25C99B"/>
<stop offset="1" stop-color="#1DB38E"/>
</linearGradient>
<linearGradient id="paint2_linear_2412_11131" x1="32.9465" y1="-4.16458" x2="-6.94289" y2="32.9646" gradientUnits="userSpaceOnUse">
<stop stop-color="#2EDFA8"/>
<stop offset="0.503541" stop-color="#25C99B"/>
<stop offset="1" stop-color="#1DB38E"/>
</linearGradient>
</defs>
</svg>
