<svg width="302" height="64" viewBox="0 0 302 64" fill="none" xmlns="http://www.w3.org/2000/svg">
  <path d="M96.464 38.544C96.6987 38.544 96.9067 38.6347 97.088 38.816L98.784 40.656C97.8453 41.8187 96.688 42.7093 95.312 43.328C93.9467 43.9467 92.304 44.256 90.384 44.256C88.6667 44.256 87.12 43.9627 85.744 43.376C84.3787 42.7893 83.2107 41.9733 82.24 40.928C81.2693 39.8827 80.5227 38.6347 80 37.184C79.488 35.7333 79.232 34.1493 79.232 32.432C79.232 30.6933 79.5093 29.104 80.064 27.664C80.6187 26.2133 81.3973 24.9653 82.4 23.92C83.4133 22.8747 84.6187 22.064 86.016 21.488C87.4133 20.9013 88.96 20.608 90.656 20.608C92.3413 20.608 93.8347 20.8853 95.136 21.44C96.448 21.9947 97.5627 22.72 98.48 23.616L97.04 25.616C96.9547 25.744 96.8427 25.856 96.704 25.952C96.576 26.048 96.3947 26.096 96.16 26.096C96 26.096 95.8347 26.0533 95.664 25.968C95.4933 25.872 95.3067 25.76 95.104 25.632C94.9013 25.4933 94.6667 25.344 94.4 25.184C94.1333 25.024 93.824 24.88 93.472 24.752C93.12 24.6133 92.7093 24.5013 92.24 24.416C91.7813 24.32 91.248 24.272 90.64 24.272C89.6053 24.272 88.656 24.4587 87.792 24.832C86.9387 25.1947 86.2027 25.728 85.584 26.432C84.9653 27.1253 84.4853 27.9787 84.144 28.992C83.8027 29.9947 83.632 31.1413 83.632 32.432C83.632 33.7333 83.8133 34.8907 84.176 35.904C84.5493 36.9173 85.0507 37.7707 85.68 38.464C86.3093 39.1573 87.0507 39.6907 87.904 40.064C88.7573 40.4267 89.6747 40.608 90.656 40.608C91.2427 40.608 91.7707 40.576 92.24 40.512C92.72 40.448 93.1573 40.3467 93.552 40.208C93.9573 40.0693 94.336 39.8933 94.688 39.68C95.0507 39.456 95.408 39.184 95.76 38.864C95.8667 38.768 95.9787 38.6933 96.096 38.64C96.2133 38.576 96.336 38.544 96.464 38.544ZM104.774 30.432C105.286 29.4507 105.894 28.6827 106.598 28.128C107.302 27.5627 108.134 27.28 109.094 27.28C109.851 27.28 110.459 27.4453 110.918 27.776L110.662 30.736C110.608 30.928 110.528 31.0667 110.422 31.152C110.326 31.2267 110.192 31.264 110.022 31.264C109.862 31.264 109.622 31.2373 109.302 31.184C108.992 31.1307 108.688 31.104 108.39 31.104C107.952 31.104 107.563 31.168 107.222 31.296C106.88 31.424 106.571 31.6107 106.294 31.856C106.027 32.0907 105.787 32.3787 105.574 32.72C105.371 33.0613 105.179 33.4507 104.998 33.888V44H101.046V27.584H103.366C103.771 27.584 104.054 27.6587 104.214 27.808C104.374 27.9467 104.48 28.2027 104.534 28.576L104.774 30.432ZM123.091 33.904C123.091 33.392 123.016 32.912 122.867 32.464C122.728 32.0053 122.515 31.6053 122.227 31.264C121.939 30.9227 121.571 30.656 121.123 30.464C120.685 30.2613 120.173 30.16 119.587 30.16C118.445 30.16 117.544 30.4853 116.883 31.136C116.232 31.7867 115.816 32.7093 115.635 33.904H123.091ZM115.555 36.288C115.619 37.1307 115.768 37.8613 116.003 38.48C116.237 39.088 116.547 39.5947 116.931 40C117.315 40.3947 117.768 40.6933 118.291 40.896C118.824 41.088 119.411 41.184 120.051 41.184C120.691 41.184 121.24 41.1093 121.699 40.96C122.168 40.8107 122.573 40.6453 122.915 40.464C123.267 40.2827 123.571 40.1173 123.827 39.968C124.093 39.8187 124.349 39.744 124.595 39.744C124.925 39.744 125.171 39.8667 125.331 40.112L126.467 41.552C126.029 42.064 125.539 42.496 124.995 42.848C124.451 43.1893 123.88 43.4667 123.283 43.68C122.696 43.8827 122.093 44.0267 121.475 44.112C120.867 44.1973 120.275 44.24 119.699 44.24C118.557 44.24 117.496 44.0533 116.515 43.68C115.533 43.296 114.68 42.736 113.955 42C113.229 41.2533 112.659 40.336 112.243 39.248C111.827 38.1493 111.618 36.88 111.618 35.44C111.618 34.32 111.8 33.2693 112.163 32.288C112.525 31.296 113.043 30.4373 113.715 29.712C114.397 28.976 115.224 28.3947 116.195 27.968C117.176 27.5413 118.28 27.328 119.507 27.328C120.541 27.328 121.496 27.4933 122.371 27.824C123.245 28.1547 123.997 28.64 124.627 29.28C125.256 29.9093 125.747 30.688 126.099 31.616C126.461 32.5333 126.642 33.584 126.642 34.768C126.642 35.3653 126.579 35.7707 126.451 35.984C126.323 36.1867 126.077 36.288 125.715 36.288H115.555ZM138.28 36.992C137.139 37.0453 136.179 37.1467 135.4 37.296C134.622 37.4347 133.998 37.616 133.528 37.84C133.059 38.064 132.723 38.3253 132.52 38.624C132.318 38.9227 132.216 39.248 132.216 39.6C132.216 40.2933 132.419 40.7893 132.824 41.088C133.24 41.3867 133.779 41.536 134.44 41.536C135.251 41.536 135.95 41.392 136.536 41.104C137.134 40.8053 137.715 40.3573 138.28 39.76V36.992ZM129.224 29.872C131.112 28.144 133.384 27.28 136.04 27.28C137 27.28 137.859 27.44 138.616 27.76C139.374 28.0693 140.014 28.5067 140.536 29.072C141.059 29.6267 141.454 30.2933 141.72 31.072C141.998 31.8507 142.136 32.704 142.136 33.632V44H140.344C139.971 44 139.683 43.9467 139.48 43.84C139.278 43.7227 139.118 43.4933 139 43.152L138.648 41.968C138.232 42.3413 137.827 42.672 137.432 42.96C137.038 43.2373 136.627 43.472 136.2 43.664C135.774 43.856 135.315 44 134.824 44.096C134.344 44.2027 133.811 44.256 133.224 44.256C132.531 44.256 131.891 44.1653 131.304 43.984C130.718 43.792 130.211 43.5093 129.784 43.136C129.358 42.7627 129.027 42.2987 128.792 41.744C128.558 41.1893 128.44 40.544 128.44 39.808C128.44 39.392 128.51 38.9813 128.648 38.576C128.787 38.16 129.011 37.7653 129.32 37.392C129.64 37.0187 130.051 36.6667 130.552 36.336C131.054 36.0053 131.667 35.7173 132.392 35.472C133.128 35.2267 133.982 35.0293 134.952 34.88C135.923 34.72 137.032 34.624 138.28 34.592V33.632C138.28 32.5333 138.046 31.7227 137.576 31.2C137.107 30.6667 136.43 30.4 135.544 30.4C134.904 30.4 134.371 30.4747 133.944 30.624C133.528 30.7733 133.16 30.944 132.84 31.136C132.52 31.3173 132.227 31.4827 131.96 31.632C131.704 31.7813 131.416 31.856 131.096 31.856C130.819 31.856 130.584 31.7867 130.392 31.648C130.2 31.4987 130.046 31.328 129.928 31.136L129.224 29.872ZM151.112 44.256C149.682 44.256 148.584 43.856 147.816 43.056C147.058 42.2453 146.68 41.1307 146.68 39.712V30.544H145C144.786 30.544 144.605 30.4747 144.456 30.336C144.306 30.1973 144.232 29.9893 144.232 29.712V28.144L146.872 27.712L147.704 23.232C147.757 23.0187 147.858 22.8533 148.008 22.736C148.157 22.6187 148.349 22.56 148.584 22.56H150.632V27.728H155.016V30.544H150.632V39.44C150.632 39.952 150.754 40.352 151 40.64C151.256 40.928 151.602 41.072 152.04 41.072C152.285 41.072 152.488 41.0453 152.648 40.992C152.818 40.928 152.962 40.864 153.08 40.8C153.208 40.736 153.32 40.6773 153.416 40.624C153.512 40.56 153.608 40.528 153.704 40.528C153.821 40.528 153.917 40.56 153.992 40.624C154.066 40.6773 154.146 40.7627 154.232 40.88L155.416 42.8C154.84 43.28 154.178 43.6427 153.432 43.888C152.685 44.1333 151.912 44.256 151.112 44.256ZM167.997 33.904C167.997 33.392 167.922 32.912 167.773 32.464C167.634 32.0053 167.421 31.6053 167.133 31.264C166.845 30.9227 166.477 30.656 166.029 30.464C165.591 30.2613 165.079 30.16 164.493 30.16C163.351 30.16 162.45 30.4853 161.789 31.136C161.138 31.7867 160.722 32.7093 160.541 33.904H167.997ZM160.461 36.288C160.525 37.1307 160.674 37.8613 160.909 38.48C161.143 39.088 161.453 39.5947 161.837 40C162.221 40.3947 162.674 40.6933 163.197 40.896C163.73 41.088 164.317 41.184 164.957 41.184C165.597 41.184 166.146 41.1093 166.605 40.96C167.074 40.8107 167.479 40.6453 167.821 40.464C168.173 40.2827 168.477 40.1173 168.733 39.968C168.999 39.8187 169.255 39.744 169.501 39.744C169.831 39.744 170.077 39.8667 170.237 40.112L171.373 41.552C170.935 42.064 170.445 42.496 169.901 42.848C169.357 43.1893 168.786 43.4667 168.189 43.68C167.602 43.8827 166.999 44.0267 166.381 44.112C165.773 44.1973 165.181 44.24 164.605 44.24C163.463 44.24 162.402 44.0533 161.421 43.68C160.439 43.296 159.586 42.736 158.861 42C158.135 41.2533 157.565 40.336 157.149 39.248C156.733 38.1493 156.525 36.88 156.525 35.44C156.525 34.32 156.706 33.2693 157.069 32.288C157.431 31.296 157.949 30.4373 158.621 29.712C159.303 28.976 160.13 28.3947 161.101 27.968C162.082 27.5413 163.186 27.328 164.413 27.328C165.447 27.328 166.402 27.4933 167.277 27.824C168.151 28.1547 168.903 28.64 169.533 29.28C170.162 29.9093 170.653 30.688 171.005 31.616C171.367 32.5333 171.549 33.584 171.549 34.768C171.549 35.3653 171.485 35.7707 171.357 35.984C171.229 36.1867 170.983 36.288 170.621 36.288H160.461Z" fill="#121319" />
  <path fill-rule="evenodd" clip-rule="evenodd" d="M181 43.9908V20H192.572C195.702 20 198.239 22.5449 198.239 25.6842V27.4084C198.239 28.9194 197.651 30.2926 196.693 31.3107C198.392 32.2922 199.536 34.1321 199.536 36.24V38.3066C199.536 41.4459 196.998 43.9908 193.868 43.9908H181ZM183.52 30.5557H192.831C194.449 30.4235 195.721 29.0649 195.721 27.4084V25.6842C195.721 23.9401 194.311 22.5263 192.572 22.5263H183.52V30.5557ZM183.52 41.4646V33.0927L193.869 33.0821C195.608 33.0821 197.017 34.496 197.017 36.24V38.3067C197.017 40.0507 195.608 41.4646 193.869 41.4646H183.52ZM206.8 20V43.9908H204.165V20H206.8ZM219.861 26.478H217.128C213.981 26.478 211.429 29.037 211.429 32.1938V38.275C211.429 41.4317 213.981 43.9908 217.128 43.9908H219.861C223.009 43.9908 225.56 41.4317 225.56 38.275V32.1938C225.56 29.037 223.009 26.478 219.861 26.478ZM217.128 29.1212C215.436 29.1212 214.064 30.4969 214.064 32.1939V38.275C214.064 39.972 215.436 41.3477 217.128 41.3477H219.861C221.553 41.3477 222.924 39.972 222.924 38.275V32.1939C222.924 30.4969 221.553 29.1212 219.861 29.1212H217.128ZM248.601 44V35.3696H251.814L256.783 44H259.826L254.111 34.0729L258.587 26.2971H255.544L251.843 32.7265H248.601V20H245.966V44H248.601ZM240.291 32.6613V32.1938C240.291 30.4968 238.92 29.1211 237.228 29.1211H234.495C232.803 29.1211 231.431 30.4968 231.431 32.1938V38.275C231.431 39.972 232.803 41.3477 234.495 41.3477H237.228C238.92 41.3477 240.291 39.972 240.291 38.275V37.8075H242.927V38.275C242.927 41.4317 240.375 43.9908 237.228 43.9908H234.495C231.347 43.9908 228.796 41.4317 228.796 38.275V32.1938C228.796 29.037 231.347 26.478 234.495 26.478H237.228C240.375 26.478 242.927 29.037 242.927 32.1938V32.6613H240.291ZM267.09 43.9908V20H264.455V43.9908H267.09ZM274.553 35.9563V38.275C274.553 39.972 275.924 41.3477 277.616 41.3477H280.349C282.041 41.3477 283.413 39.972 283.413 38.275V37.8075H286.048V38.275C286.048 41.4317 283.497 43.9908 280.349 43.9908H277.616C274.469 43.9908 271.917 41.4317 271.917 38.275V32.1938C271.917 29.037 274.469 26.478 277.616 26.478H280.349C283.497 26.478 286.048 29.037 286.048 32.1938V33.3131H286.049V35.9563H274.553ZM283.413 33.3131H274.553V32.1938C274.553 30.4968 275.924 29.1211 277.616 29.1211H280.349C282.041 29.1211 283.413 30.4968 283.413 32.1938V33.3131ZM291.621 30.4448H289.276V27.8016H291.621V23.5301H294.14V27.8016H300.238V30.4448H294.14V38.9605C294.14 40.3434 295.258 41.4645 296.637 41.4645C298.016 41.4645 299.134 40.3434 299.134 38.9605V38.4346H301.653V38.9605C301.653 41.7387 299.407 43.9908 296.637 43.9908C293.867 43.9908 291.621 41.7387 291.621 38.9605V30.4448Z" fill="#121319" />
  <path fill-rule="evenodd" clip-rule="evenodd" d="M50.12 10.6348L31.7 0L13.28 10.6348V24.7781L1 31.868V53.1375L19.42 63.7723L31.6702 56.6997L31.7 56.7169L31.7298 56.6997L43.98 63.7723L62.4 53.1375V31.868L50.12 24.7781V10.6348ZM60.4813 32.9757L48.2013 25.8859V11.7426L31.7 2.21558L15.1988 11.7426V25.8859L2.91875 32.9757V52.0297L19.42 61.5568L31.6702 54.4841L31.7 54.5013L31.7298 54.4841L43.98 61.5568L60.4813 52.0297V32.9757Z" fill="url(#paint0_linear_2250_7576)" />
  <path fill-rule="evenodd" clip-rule="evenodd" d="M31.6998 14.1797L50.1198 24.8145V46.0841L31.6998 56.7189L13.2798 46.0841V24.8145L31.6998 14.1797ZM16.1579 25.3684L30.7404 33.7876V16.9492L16.1579 25.3684ZM29.781 35.4493L15.1985 27.0301V43.8685L29.781 35.4493ZM32.6592 37.111L47.2417 45.5302L32.6592 53.9494V37.111ZM48.201 43.8685L33.6185 35.4493L48.201 27.0301V43.8685ZM30.7404 53.9494L16.1579 45.5302L30.7404 37.111V53.9494ZM32.6592 16.9492L47.2417 25.3684L32.6592 33.7876V16.9492Z" fill="url(#paint1_linear_2250_7576)" />
  <defs>
    <linearGradient id="paint0_linear_2250_7576" x1="31.7" y1="-31.8862" x2="-32.0265" y2="29.4697" gradientUnits="userSpaceOnUse">
      <stop stop-color="#4EF1BA" />
      <stop offset="0.501904" stop-color="#16CED1" />
      <stop offset="1" stop-color="#3773F2" />
    </linearGradient>
    <linearGradient id="paint1_linear_2250_7576" x1="34.1078" y1="-37.1138" x2="-36.2973" y2="18.5071" gradientUnits="userSpaceOnUse">
      <stop stop-color="#4EF1BA" />
      <stop offset="0.501904" stop-color="#16CED1" />
      <stop offset="1" stop-color="#3773F2" />
    </linearGradient>
  </defs>
</svg>
