<svg width="153" height="97" viewBox="0 0 153 97" fill="none" xmlns="http://www.w3.org/2000/svg">
<path fill-rule="evenodd" clip-rule="evenodd" d="M94.12 10.6348L75.7 0L57.28 10.6348V24.7781L45 31.868V53.1375L63.42 63.7723L75.6702 56.6997L75.7 56.7169L75.7298 56.6997L87.98 63.7723L106.4 53.1375V31.868L94.12 24.7781V10.6348ZM104.481 32.9757L92.2013 25.8859V11.7426L75.7 2.21558L59.1988 11.7426V25.8859L46.9188 32.9757V52.0297L63.42 61.5568L75.6702 54.4841L75.7 54.5013L75.7298 54.4841L87.98 61.5568L104.481 52.0297V32.9757Z" fill="url(#paint0_linear_2250_8152)"/>
<path fill-rule="evenodd" clip-rule="evenodd" d="M75.6998 14.1797L94.1198 24.8145V46.0841L75.6998 56.7189L57.2798 46.0841V24.8145L75.6998 14.1797ZM60.1579 25.3684L74.7404 33.7876V16.9492L60.1579 25.3684ZM73.781 35.4493L59.1985 27.0301V43.8685L73.781 35.4493ZM76.6592 37.111L91.2417 45.5302L76.6592 53.9494V37.111ZM92.201 43.8685L77.6185 35.4493L92.201 27.0301V43.8685ZM74.7404 53.9494L60.1579 45.5302L74.7404 37.111V53.9494ZM76.6592 16.9492L91.2417 25.3684L76.6592 33.7876V16.9492Z" fill="url(#paint1_linear_2250_8152)"/>
<path d="M13.1881 88.249C13.3495 88.249 13.4925 88.3113 13.6171 88.436L14.7831 89.701C14.1378 90.5003 13.3421 91.1127 12.3961 91.538C11.4575 91.9633 10.3281 92.176 9.00814 92.176C7.82747 92.176 6.76414 91.9743 5.81814 91.571C4.87947 91.1677 4.07647 90.6067 3.40914 89.888C2.74181 89.1693 2.22847 88.3113 1.86914 87.314C1.51714 86.3167 1.34114 85.2277 1.34114 84.047C1.34114 82.8517 1.53181 81.759 1.91314 80.769C2.29447 79.7717 2.82981 78.9137 3.51914 78.195C4.21581 77.4763 5.04447 76.919 6.00514 76.523C6.96581 76.1197 8.02914 75.918 9.19514 75.918C10.3538 75.918 11.3805 76.1087 12.2751 76.49C13.1771 76.8713 13.9435 77.37 14.5741 77.986L13.5841 79.361C13.5255 79.449 13.4485 79.526 13.3531 79.592C13.2651 79.658 13.1405 79.691 12.9791 79.691C12.8691 79.691 12.7555 79.6617 12.6381 79.603C12.5208 79.537 12.3925 79.46 12.2531 79.372C12.1138 79.2767 11.9525 79.174 11.7691 79.064C11.5858 78.954 11.3731 78.855 11.1311 78.767C10.8891 78.6717 10.6068 78.5947 10.2841 78.536C9.96881 78.47 9.60214 78.437 9.18414 78.437C8.47281 78.437 7.82014 78.5653 7.22614 78.822C6.63947 79.0713 6.13347 79.438 5.70814 79.922C5.28281 80.3987 4.95281 80.9853 4.71814 81.682C4.48347 82.3713 4.36614 83.1597 4.36614 84.047C4.36614 84.9417 4.49081 85.7373 4.74014 86.434C4.99681 87.1307 5.34147 87.7173 5.77414 88.194C6.20681 88.6707 6.71647 89.0373 7.30314 89.294C7.88981 89.5433 8.52047 89.668 9.19514 89.668C9.59847 89.668 9.96147 89.646 10.2841 89.602C10.6141 89.558 10.9148 89.4883 11.1861 89.393C11.4648 89.2977 11.7251 89.1767 11.9671 89.03C12.2165 88.876 12.4621 88.689 12.7041 88.469C12.7775 88.403 12.8545 88.3517 12.9351 88.315C13.0158 88.271 13.1001 88.249 13.1881 88.249ZM18.9011 82.672C19.2531 81.9973 19.6711 81.4693 20.1551 81.088C20.6391 80.6993 21.2111 80.505 21.8711 80.505C22.3918 80.505 22.8098 80.6187 23.1251 80.846L22.9491 82.881C22.9124 83.013 22.8574 83.1083 22.7841 83.167C22.7181 83.2183 22.6264 83.244 22.5091 83.244C22.3991 83.244 22.2341 83.2257 22.0141 83.189C21.8014 83.1523 21.5924 83.134 21.3871 83.134C21.0864 83.134 20.8188 83.178 20.5841 83.266C20.3494 83.354 20.1368 83.4823 19.9461 83.651C19.7628 83.8123 19.5978 84.0103 19.4511 84.245C19.3118 84.4797 19.1798 84.7473 19.0551 85.048V92H16.3381V80.714H17.9331C18.2118 80.714 18.4061 80.7653 18.5161 80.868C18.6261 80.9633 18.6994 81.1393 18.7361 81.396L18.9011 82.672ZM31.4939 85.059C31.4939 84.707 31.4425 84.377 31.3399 84.069C31.2445 83.7537 31.0979 83.4787 30.8999 83.244C30.7019 83.0093 30.4489 82.826 30.1409 82.694C29.8402 82.5547 29.4882 82.485 29.0849 82.485C28.3002 82.485 27.6805 82.7087 27.2259 83.156C26.7785 83.6033 26.4925 84.2377 26.3679 85.059H31.4939ZM26.3129 86.698C26.3569 87.2773 26.4595 87.7797 26.6209 88.205C26.7822 88.623 26.9949 88.9713 27.2589 89.25C27.5229 89.5213 27.8345 89.7267 28.1939 89.866C28.5605 89.998 28.9639 90.064 29.4039 90.064C29.8439 90.064 30.2215 90.0127 30.5369 89.91C30.8595 89.8073 31.1382 89.6937 31.3729 89.569C31.6149 89.4443 31.8239 89.3307 31.9999 89.228C32.1832 89.1253 32.3592 89.074 32.5279 89.074C32.7552 89.074 32.9239 89.1583 33.0339 89.327L33.8149 90.317C33.5142 90.669 33.1769 90.966 32.8029 91.208C32.4289 91.4427 32.0365 91.6333 31.6259 91.78C31.2225 91.9193 30.8082 92.0183 30.3829 92.077C29.9649 92.1357 29.5579 92.165 29.1619 92.165C28.3772 92.165 27.6475 92.0367 26.9729 91.78C26.2982 91.516 25.7115 91.131 25.2129 90.625C24.7142 90.1117 24.3219 89.481 24.0359 88.733C23.7499 87.9777 23.6069 87.105 23.6069 86.115C23.6069 85.345 23.7315 84.6227 23.9809 83.948C24.2302 83.266 24.5859 82.6757 25.0479 82.177C25.5172 81.671 26.0855 81.2713 26.7529 80.978C27.4275 80.6847 28.1865 80.538 29.0299 80.538C29.7412 80.538 30.3975 80.6517 30.9989 80.879C31.6002 81.1063 32.1172 81.44 32.5499 81.88C32.9825 82.3127 33.3199 82.848 33.5619 83.486C33.8112 84.1167 33.9359 84.839 33.9359 85.653C33.9359 86.0637 33.8919 86.3423 33.8039 86.489C33.7159 86.6283 33.5472 86.698 33.2979 86.698H26.3129ZM41.9368 87.182C41.1521 87.2187 40.4921 87.2883 39.9568 87.391C39.4215 87.4863 38.9925 87.611 38.6698 87.765C38.3471 87.919 38.1161 88.0987 37.9768 88.304C37.8375 88.5093 37.7678 88.733 37.7678 88.975C37.7678 89.4517 37.9071 89.7927 38.1858 89.998C38.4718 90.2033 38.8421 90.306 39.2968 90.306C39.8541 90.306 40.3345 90.207 40.7378 90.009C41.1485 89.8037 41.5481 89.4957 41.9368 89.085V87.182ZM35.7108 82.287C37.0088 81.099 38.5708 80.505 40.3968 80.505C41.0568 80.505 41.6471 80.615 42.1678 80.835C42.6885 81.0477 43.1285 81.3483 43.4878 81.737C43.8471 82.1183 44.1185 82.5767 44.3018 83.112C44.4925 83.6473 44.5878 84.234 44.5878 84.872V92H43.3558C43.0991 92 42.9011 91.9633 42.7618 91.89C42.6225 91.8093 42.5125 91.6517 42.4318 91.417L42.1898 90.603C41.9038 90.8597 41.6251 91.087 41.3538 91.285C41.0825 91.4757 40.8001 91.637 40.5068 91.769C40.2135 91.901 39.8981 92 39.5608 92.066C39.2308 92.1393 38.8641 92.176 38.4608 92.176C37.9841 92.176 37.5441 92.1137 37.1408 91.989C36.7375 91.857 36.3891 91.6627 36.0958 91.406C35.8025 91.1493 35.5751 90.8303 35.4138 90.449C35.2525 90.0677 35.1718 89.624 35.1718 89.118C35.1718 88.832 35.2195 88.5497 35.3148 88.271C35.4101 87.985 35.5641 87.7137 35.7768 87.457C35.9968 87.2003 36.2791 86.9583 36.6238 86.731C36.9685 86.5037 37.3901 86.3057 37.8888 86.137C38.3948 85.9683 38.9815 85.8327 39.6488 85.73C40.3161 85.62 41.0788 85.554 41.9368 85.532V84.872C41.9368 84.1167 41.7755 83.5593 41.4528 83.2C41.1301 82.8333 40.6645 82.65 40.0558 82.65C39.6158 82.65 39.2491 82.7013 38.9558 82.804C38.6698 82.9067 38.4168 83.024 38.1968 83.156C37.9768 83.2807 37.7751 83.3943 37.5918 83.497C37.4158 83.5997 37.2178 83.651 36.9978 83.651C36.8071 83.651 36.6458 83.6033 36.5138 83.508C36.3818 83.4053 36.2755 83.288 36.1948 83.156L35.7108 82.287ZM50.7583 92.176C49.7756 92.176 49.0203 91.901 48.4923 91.351C47.9716 90.7937 47.7113 90.0273 47.7113 89.052V82.749H46.5563C46.4096 82.749 46.285 82.7013 46.1823 82.606C46.0796 82.5107 46.0283 82.3677 46.0283 82.177V81.099L47.8433 80.802L48.4153 77.722C48.452 77.5753 48.5216 77.4617 48.6243 77.381C48.727 77.3003 48.859 77.26 49.0203 77.26H50.4283V80.813H53.4423V82.749H50.4283V88.865C50.4283 89.217 50.5126 89.492 50.6813 89.69C50.8573 89.888 51.0956 89.987 51.3963 89.987C51.565 89.987 51.7043 89.9687 51.8143 89.932C51.9316 89.888 52.0306 89.844 52.1113 89.8C52.1993 89.756 52.2763 89.7157 52.3423 89.679C52.4083 89.635 52.4743 89.613 52.5403 89.613C52.621 89.613 52.687 89.635 52.7383 89.679C52.7896 89.7157 52.8446 89.7743 52.9033 89.855L53.7173 91.175C53.3213 91.505 52.8666 91.7543 52.3533 91.923C51.84 92.0917 51.3083 92.176 50.7583 92.176ZM62.3669 85.059C62.3669 84.707 62.3156 84.377 62.2129 84.069C62.1176 83.7537 61.9709 83.4787 61.7729 83.244C61.5749 83.0093 61.3219 82.826 61.0139 82.694C60.7132 82.5547 60.3612 82.485 59.9579 82.485C59.1732 82.485 58.5536 82.7087 58.0989 83.156C57.6516 83.6033 57.3656 84.2377 57.2409 85.059H62.3669ZM57.1859 86.698C57.2299 87.2773 57.3326 87.7797 57.4939 88.205C57.6552 88.623 57.8679 88.9713 58.1319 89.25C58.3959 89.5213 58.7076 89.7267 59.0669 89.866C59.4336 89.998 59.8369 90.064 60.2769 90.064C60.7169 90.064 61.0946 90.0127 61.4099 89.91C61.7326 89.8073 62.0112 89.6937 62.2459 89.569C62.4879 89.4443 62.6969 89.3307 62.8729 89.228C63.0562 89.1253 63.2322 89.074 63.4009 89.074C63.6282 89.074 63.7969 89.1583 63.9069 89.327L64.6879 90.317C64.3872 90.669 64.0499 90.966 63.6759 91.208C63.3019 91.4427 62.9096 91.6333 62.4989 91.78C62.0956 91.9193 61.6812 92.0183 61.2559 92.077C60.8379 92.1357 60.4309 92.165 60.0349 92.165C59.2502 92.165 58.5206 92.0367 57.8459 91.78C57.1712 91.516 56.5846 91.131 56.0859 90.625C55.5872 90.1117 55.1949 89.481 54.9089 88.733C54.6229 87.9777 54.4799 87.105 54.4799 86.115C54.4799 85.345 54.6046 84.6227 54.8539 83.948C55.1032 83.266 55.4589 82.6757 55.9209 82.177C56.3902 81.671 56.9586 81.2713 57.6259 80.978C58.3006 80.6847 59.0596 80.538 59.9029 80.538C60.6142 80.538 61.2706 80.6517 61.8719 80.879C62.4732 81.1063 62.9902 81.44 63.4229 81.88C63.8556 82.3127 64.1929 82.848 64.4349 83.486C64.6842 84.1167 64.8089 84.839 64.8089 85.653C64.8089 86.0637 64.7649 86.3423 64.6769 86.489C64.5889 86.6283 64.4202 86.698 64.1709 86.698H57.1859Z" fill="#121319"/>
<path fill-rule="evenodd" clip-rule="evenodd" d="M72 90.9939V75H79.7369C81.8298 75 83.5264 76.6966 83.5264 78.7895V79.9389C83.5264 80.9462 83.1334 81.8618 82.4923 82.5405C83.6284 83.1948 84.3933 84.4214 84.3933 85.8266V87.2044C84.3933 89.2973 82.6967 90.9939 80.6038 90.9939H72ZM73.6838 82.0372H79.9099C80.9915 81.949 81.8418 81.0433 81.8418 79.939V78.7895C81.8418 77.6268 80.8992 76.6842 79.7365 76.6842H73.6838V82.0372ZM73.6838 89.3097V83.7285L80.6034 83.7214C81.7661 83.7214 82.7087 84.664 82.7087 85.8267V87.2045C82.7087 88.3672 81.7661 89.3097 80.6034 89.3097H73.6838ZM89.2502 75V90.9939H87.4881V75H89.2502ZM97.9838 79.3186H96.1566C94.0521 79.3186 92.346 81.0247 92.346 83.1292V87.1833C92.346 89.2878 94.0521 90.9938 96.1566 90.9938H97.9838C100.088 90.9938 101.794 89.2878 101.794 87.1833V83.1292C101.794 81.0247 100.088 79.3186 97.9838 79.3186ZM96.1555 81.0808C95.0242 81.0808 94.1071 81.9979 94.1071 83.1292V87.1833C94.1071 88.3147 95.0242 89.2318 96.1555 89.2318H97.9827C99.114 89.2318 100.031 88.3147 100.031 87.1833V83.1292C100.031 81.9979 99.114 81.0808 97.9827 81.0808H96.1555ZM117.199 91V85.2464H119.347L122.669 91H124.704L120.883 84.3819L123.876 79.1981H121.841L119.366 83.4843H117.199V75H115.437V91H117.199ZM111.643 83.4408V83.1292C111.643 81.9978 110.726 81.0807 109.595 81.0807H107.767C106.636 81.0807 105.719 81.9978 105.719 83.1292V87.1833C105.719 88.3146 106.636 89.2317 107.767 89.2317H109.595C110.726 89.2317 111.643 88.3146 111.643 87.1833V86.8717H113.405V87.1833C113.405 89.2878 111.699 90.9938 109.595 90.9938H107.767C105.663 90.9938 103.957 89.2878 103.957 87.1833V83.1292C103.957 81.0247 105.663 79.3186 107.767 79.3186H109.595C111.699 79.3186 113.405 81.0247 113.405 83.1292V83.4408H111.643ZM129.561 90.9939V75H127.799V90.9939H129.561ZM134.55 85.6376V87.1833C134.55 88.3146 135.467 89.2317 136.599 89.2317H138.426C139.557 89.2317 140.474 88.3146 140.474 87.1833V86.8717H142.236V87.1833C142.236 89.2878 140.53 90.9938 138.426 90.9938H136.599C134.494 90.9938 132.788 89.2878 132.788 87.1833V83.1292C132.788 81.0247 134.494 79.3186 136.599 79.3186H138.426C140.53 79.3186 142.236 81.0247 142.236 83.1292V83.8755H142.237V85.6376H134.55ZM140.474 83.8755H134.55V83.1292C134.55 81.9978 135.467 81.0807 136.599 81.0807H138.426C139.557 81.0807 140.474 81.9978 140.474 83.1292V83.8755ZM145.963 81.9633H144.395V80.2011H145.963V77.3534H147.647V80.2011H151.724V81.9633H147.647V87.6403C147.647 88.5623 148.395 89.3097 149.317 89.3097C150.239 89.3097 150.986 88.5623 150.986 87.6403V87.2898H152.67V87.6403C152.67 89.4924 151.169 90.9939 149.317 90.9939C147.465 90.9939 145.963 89.4924 145.963 87.6403V81.9633Z" fill="#121319"/>
<defs>
<linearGradient id="paint0_linear_2250_8152" x1="75.7" y1="-31.8862" x2="11.9735" y2="29.4697" gradientUnits="userSpaceOnUse">
<stop stop-color="#4EF1BA"/>
<stop offset="0.501904" stop-color="#16CED1"/>
<stop offset="1" stop-color="#3773F2"/>
</linearGradient>
<linearGradient id="paint1_linear_2250_8152" x1="78.1078" y1="-37.1138" x2="7.70266" y2="18.5071" gradientUnits="userSpaceOnUse">
<stop stop-color="#4EF1BA"/>
<stop offset="0.501904" stop-color="#16CED1"/>
<stop offset="1" stop-color="#3773F2"/>
</linearGradient>
</defs>
</svg>
