<svg width="96" height="100" viewBox="0 0 96 100" fill="none" xmlns="http://www.w3.org/2000/svg">
  <path fill-rule="evenodd" clip-rule="evenodd" d="M76.8 16.6277L48 0L19.2 16.6277V38.741L0 49.8261V83.0815L28.8 99.7092L47.9534 88.651L48 88.6779L48.0466 88.651L67.2 99.7092L96 83.0815V49.8261L76.8 38.741V16.6277ZM93 51.5582L73.8 40.473V18.3597L48 3.4641L22.2 18.3597V40.473L3 51.5582V81.3494L28.8 96.2451L47.9534 85.1869L48 85.2138L48.0466 85.1869L67.2 96.2451L93 81.3494V51.5582Z" fill="url(#paint0_linear_2257_1868)" />
  <path fill-rule="evenodd" clip-rule="evenodd" d="M47.9997 22.1704L76.7997 38.7981V72.0535L47.9997 88.6812L19.1997 72.0535V38.7981L47.9997 22.1704ZM23.6997 39.6641L46.4997 52.8277V26.5005L23.6997 39.6641ZM44.9997 55.4258L22.1997 42.2622V68.5894L44.9997 55.4258ZM49.4997 58.0239L72.2997 71.1874L49.4997 84.351V58.0239ZM73.7997 68.5894L50.9997 55.4258L73.7997 42.2622V68.5894ZM46.4997 84.351L23.6997 71.1874L46.4997 58.0239V84.351ZM49.4997 26.5005L72.2997 39.6641L49.4997 52.8277V26.5005Z" fill="url(#paint1_linear_2257_1868)" />
  <defs>
    <linearGradient id="paint0_linear_2257_1868" x1="48" y1="-49.8546" x2="-51.6376" y2="46.0765" gradientUnits="userSpaceOnUse">
      <stop stop-color="#4EF1BA" />
      <stop offset="0.501904" stop-color="#16CED1" />
      <stop offset="1" stop-color="#3773F2" />
    </linearGradient>
    <linearGradient id="paint1_linear_2257_1868" x1="51.7647" y1="-58.0279" x2="-58.315" y2="28.9365" gradientUnits="userSpaceOnUse">
      <stop stop-color="#4EF1BA" />
      <stop offset="0.501904" stop-color="#16CED1" />
      <stop offset="1" stop-color="#3773F2" />
    </linearGradient>
  </defs>
</svg>
